<svg width="51" height="25" viewBox="0 0 51 25" fill="none" xmlns="http://www.w3.org/2000/svg">
<path d="M38 6C38 9.31371 35.3137 12 32 12C28.6863 12 26 9.31371 26 6C26 2.68629 28.6863 0 32 0C35.3137 0 38 2.68629 38 6Z" fill="white"/>
<path d="M38 19C38 22.3137 35.3137 25 32 25C28.6863 25 26 22.3137 26 19C26 15.6863 28.6863 13 32 13C35.3137 13 38 15.6863 38 19Z" fill="white"/>
<path d="M25 6C25 9.31371 22.3137 12 19 12C15.6863 12 13 9.31371 13 6C13 2.68629 15.6863 0 19 0C22.3137 0 25 2.68629 25 6Z" fill="white"/>
<path d="M25 19C25 22.3137 22.3137 25 19 25C15.6863 25 13 22.3137 13 19C13 15.6863 15.6863 13 19 13C22.3137 13 25 15.6863 25 19Z" fill="white"/>
<path d="M12 19C12 22.3137 9.31371 25 6 25C2.68629 25 0 22.3137 0 19C0 15.6863 2.68629 13 6 13C9.31371 13 12 15.6863 12 19Z" fill="white"/>
<path d="M51 6C51 9.31371 48.3137 12 45 12C41.6863 12 39 9.31371 39 6C39 2.68629 41.6863 0 45 0C48.3137 0 51 2.68629 51 6Z" fill="white"/>
<path d="M51 19C51 22.3137 48.3137 25 45 25C41.6863 25 39 22.3137 39 19C39 15.6863 41.6863 13 45 13C48.3137 13 51 15.6863 51 19Z" fill="white"/>
</svg>
